<svg xmlns="http://www.w3.org/2000/svg" width="960" height="480" viewBox="0 0 960 480" role="img" aria-label="时间步、输出间隔与物理时间"><defs><marker id="arrow" viewBox="0 0 10 10" refX="9" refY="5" markerWidth="7" markerHeight="7" orient="auto-start-reverse"><path d="M0 0 L10 5 L0 10 Z" fill="#1667ba"/></marker></defs><rect width="960" height="480" rx="18" fill="#f8fbff"/><g font-family="Arial,Microsoft YaHei,sans-serif"><text x="40" y="49" font-size="26" fill="#14334e" text-anchor="start" font-weight="650">时间步、输出间隔与物理时间</text><line x1="90" y1="210" x2="875" y2="210" stroke="#1667ba" stroke-width="3" marker-end="url(#arrow)"/><line x1="110.0" y1="199" x2="110.0" y2="221" stroke="#839db6" stroke-width="1"/><line x1="118.5" y1="199" x2="118.5" y2="221" stroke="#839db6" stroke-width="1"/><line x1="127.0" y1="199" x2="127.0" y2="221" stroke="#839db6" stroke-width="1"/><line x1="135.5" y1="199" x2="135.5" y2="221" stroke="#839db6" stroke-width="1"/><line x1="144.0" y1="199" x2="144.0" y2="221" stroke="#839db6" stroke-width="1"/><line x1="152.5" y1="199" x2="152.5" y2="221" stroke="#839db6" stroke-width="1"/><line x1="161.0" y1="199" x2="161.0" y2="221" stroke="#839db6" stroke-width="1"/><line x1="169.5" y1="199" x2="169.5" y2="221" stroke="#839db6" stroke-width="1"/><line x1="178.0" y1="199" x2="178.0" y2="221" stroke="#839db6" stroke-width="1"/><line x1="186.5" y1="199" x2="186.5" y2="221" stroke="#839db6" stroke-width="1"/><line x1="195.0" y1="199" x2="195.0" y2="221" stroke="#839db6" stroke-width="1"/><line x1="203.5" y1="199" x2="203.5" y2="221" stroke="#839db6" stroke-width="1"/><line x1="212.0" y1="199" x2="212.0" y2="221" stroke="#839db6" stroke-width="1"/><line x1="220.5" y1="199" x2="220.5" y2="221" stroke="#839db6" stroke-width="1"/><line x1="229.0" y1="199" x2="229.0" y2="221" stroke="#839db6" stroke-width="1"/><line x1="237.5" y1="199" x2="237.5" y2="221" stroke="#839db6" stroke-width="1"/><line x1="246.0" y1="199" x2="246.0" y2="221" stroke="#839db6" stroke-width="1"/><line x1="254.5" y1="199" x2="254.5" y2="221" stroke="#839db6" stroke-width="1"/><line x1="263.0" y1="199" x2="263.0" y2="221" stroke="#839db6" stroke-width="1"/><line x1="271.5" y1="199" x2="271.5" y2="221" stroke="#839db6" stroke-width="1"/><line x1="280.0" y1="199" x2="280.0" y2="221" stroke="#839db6" stroke-width="1"/><line x1="288.5" y1="199" x2="288.5" y2="221" stroke="#839db6" stroke-width="1"/><line x1="297.0" y1="199" x2="297.0" y2="221" stroke="#839db6" stroke-width="1"/><line x1="305.5" y1="199" x2="305.5" y2="221" stroke="#839db6" stroke-width="1"/><line x1="314.0" y1="199" x2="314.0" y2="221" stroke="#839db6" stroke-width="1"/><line x1="322.5" y1="199" x2="322.5" y2="221" stroke="#839db6" stroke-width="1"/><line x1="331.0" y1="199" x2="331.0" y2="221" stroke="#839db6" stroke-width="1"/><line x1="339.5" y1="199" x2="339.5" y2="221" stroke="#839db6" stroke-width="1"/><line x1="348.0" y1="199" x2="348.0" y2="221" stroke="#839db6" stroke-width="1"/><line x1="356.5" y1="199" x2="356.5" y2="221" stroke="#839db6" stroke-width="1"/><line x1="365.0" y1="199" x2="365.0" y2="221" stroke="#839db6" stroke-width="1"/><line x1="373.5" y1="199" x2="373.5" y2="221" stroke="#839db6" stroke-width="1"/><line x1="382.0" y1="199" x2="382.0" y2="221" stroke="#839db6" stroke-width="1"/><line x1="390.5" y1="199" x2="390.5" y2="221" stroke="#839db6" stroke-width="1"/><line x1="399.0" y1="199" x2="399.0" y2="221" stroke="#839db6" stroke-width="1"/><line x1="407.5" y1="199" x2="407.5" y2="221" stroke="#839db6" stroke-width="1"/><line x1="416.0" y1="199" x2="416.0" y2="221" stroke="#839db6" stroke-width="1"/><line x1="424.5" y1="199" x2="424.5" y2="221" stroke="#839db6" stroke-width="1"/><line x1="433.0" y1="199" x2="433.0" y2="221" stroke="#839db6" stroke-width="1"/><line x1="441.5" y1="199" x2="441.5" y2="221" stroke="#839db6" stroke-width="1"/><line x1="450.0" y1="199" x2="450.0" y2="221" stroke="#839db6" stroke-width="1"/><line x1="458.5" y1="199" x2="458.5" y2="221" stroke="#839db6" stroke-width="1"/><line x1="467.0" y1="199" x2="467.0" y2="221" stroke="#839db6" stroke-width="1"/><line x1="475.5" y1="199" x2="475.5" y2="221" stroke="#839db6" stroke-width="1"/><line x1="484.0" y1="199" x2="484.0" y2="221" stroke="#839db6" stroke-width="1"/><line x1="492.5" y1="199" x2="492.5" y2="221" stroke="#839db6" stroke-width="1"/><line x1="501.0" y1="199" x2="501.0" y2="221" stroke="#839db6" stroke-width="1"/><line x1="509.5" y1="199" x2="509.5" y2="221" stroke="#839db6" stroke-width="1"/><line x1="518.0" y1="199" x2="518.0" y2="221" stroke="#839db6" stroke-width="1"/><line x1="526.5" y1="199" x2="526.5" y2="221" stroke="#839db6" stroke-width="1"/><line x1="535.0" y1="199" x2="535.0" y2="221" stroke="#839db6" stroke-width="1"/><line x1="543.5" y1="199" x2="543.5" y2="221" stroke="#839db6" stroke-width="1"/><line x1="552.0" y1="199" x2="552.0" y2="221" stroke="#839db6" stroke-width="1"/><line x1="560.5" y1="199" x2="560.5" y2="221" stroke="#839db6" stroke-width="1"/><line x1="569.0" y1="199" x2="569.0" y2="221" stroke="#839db6" stroke-width="1"/><line x1="577.5" y1="199" x2="577.5" y2="221" stroke="#839db6" stroke-width="1"/><line x1="586.0" y1="199" x2="586.0" y2="221" stroke="#839db6" stroke-width="1"/><line x1="594.5" y1="199" x2="594.5" y2="221" stroke="#839db6" stroke-width="1"/><line x1="603.0" y1="199" x2="603.0" y2="221" stroke="#839db6" stroke-width="1"/><line x1="611.5" y1="199" x2="611.5" y2="221" stroke="#839db6" stroke-width="1"/><line x1="620.0" y1="199" x2="620.0" y2="221" stroke="#839db6" stroke-width="1"/><line x1="628.5" y1="199" x2="628.5" y2="221" stroke="#839db6" stroke-width="1"/><line x1="637.0" y1="199" x2="637.0" y2="221" stroke="#839db6" stroke-width="1"/><line x1="645.5" y1="199" x2="645.5" y2="221" stroke="#839db6" stroke-width="1"/><line x1="654.0" y1="199" x2="654.0" y2="221" stroke="#839db6" stroke-width="1"/><line x1="662.5" y1="199" x2="662.5" y2="221" stroke="#839db6" stroke-width="1"/><line x1="671.0" y1="199" x2="671.0" y2="221" stroke="#839db6" stroke-width="1"/><line x1="679.5" y1="199" x2="679.5" y2="221" stroke="#839db6" stroke-width="1"/><line x1="688.0" y1="199" x2="688.0" y2="221" stroke="#839db6" stroke-width="1"/><line x1="696.5" y1="199" x2="696.5" y2="221" stroke="#839db6" stroke-width="1"/><line x1="705.0" y1="199" x2="705.0" y2="221" stroke="#839db6" stroke-width="1"/><line x1="713.5" y1="199" x2="713.5" y2="221" stroke="#839db6" stroke-width="1"/><line x1="722.0" y1="199" x2="722.0" y2="221" stroke="#839db6" stroke-width="1"/><line x1="730.5" y1="199" x2="730.5" y2="221" stroke="#839db6" stroke-width="1"/><line x1="739.0" y1="199" x2="739.0" y2="221" stroke="#839db6" stroke-width="1"/><line x1="747.5" y1="199" x2="747.5" y2="221" stroke="#839db6" stroke-width="1"/><line x1="756.0" y1="199" x2="756.0" y2="221" stroke="#839db6" stroke-width="1"/><line x1="764.5" y1="199" x2="764.5" y2="221" stroke="#839db6" stroke-width="1"/><line x1="773.0" y1="199" x2="773.0" y2="221" stroke="#839db6" stroke-width="1"/><line x1="781.5" y1="199" x2="781.5" y2="221" stroke="#839db6" stroke-width="1"/><line x1="790.0" y1="199" x2="790.0" y2="221" stroke="#839db6" stroke-width="1"/><line x1="798.5" y1="199" x2="798.5" y2="221" stroke="#839db6" stroke-width="1"/><line x1="807.0" y1="199" x2="807.0" y2="221" stroke="#839db6" stroke-width="1"/><line x1="815.5" y1="199" x2="815.5" y2="221" stroke="#839db6" stroke-width="1"/><line x1="824.0" y1="199" x2="824.0" y2="221" stroke="#839db6" stroke-width="1"/><circle cx="110" cy="210" r="9" fill="#1667ba"/><text x="110" y="264" font-size="20" fill="#14334e" text-anchor="middle" font-weight="400">0.0 s</text><circle cx="280" cy="210" r="9" fill="#1667ba"/><text x="280" y="264" font-size="20" fill="#14334e" text-anchor="middle" font-weight="400">0.1 s</text><circle cx="450" cy="210" r="9" fill="#1667ba"/><text x="450" y="264" font-size="20" fill="#14334e" text-anchor="middle" font-weight="400">0.2 s</text><circle cx="620" cy="210" r="9" fill="#1667ba"/><text x="620" y="264" font-size="20" fill="#14334e" text-anchor="middle" font-weight="400">0.3 s</text><circle cx="790" cy="210" r="9" fill="#1667ba"/><text x="790" y="264" font-size="20" fill="#14334e" text-anchor="middle" font-weight="400">0.4 s</text><text x="480" y="127" font-size="22" fill="#14334e" text-anchor="middle" font-weight="400">每个小刻度：计算推进一个 Δt；蓝点：写出一个时间目录</text><text x="480" y="334" font-size="23" fill="#14334e" text-anchor="middle" font-weight="400">固定 Δt = 0.005 s，writeInterval = 20 → 每 0.1 s 保存一次</text><text x="40" y="451" font-size="15" fill="#62798c" text-anchor="start" font-weight="400">FoamLab · 原创教学示意图，非计算结果</text></g></svg>