<svg xmlns="http://www.w3.org/2000/svg" width="960" height="480" viewBox="0 0 960 480" role="img" aria-label="线性残差下降，不等于物理量已经收敛"><defs><marker id="arrow" viewBox="0 0 10 10" refX="9" refY="5" markerWidth="7" markerHeight="7" orient="auto-start-reverse"><path d="M0 0 L10 5 L0 10 Z" fill="#1667ba"/></marker></defs><rect width="960" height="480" rx="18" fill="#f8fbff"/><g font-family="Arial,Microsoft YaHei,sans-serif"><text x="40" y="49" font-size="26" fill="#14334e" text-anchor="start" font-weight="650">线性残差下降，不等于物理量已经收敛</text><line x1="100" y1="360" x2="870" y2="360" stroke="#1667ba" stroke-width="3" marker-end="url(#arrow)"/><line x1="100" y1="360" x2="100" y2="105" stroke="#1667ba" stroke-width="3" marker-end="url(#arrow)"/><path d="M110 132 C170 160 185 200 230 217 C300 250 370 276 450 307 C540 335 680 344 850 348" fill="none" stroke="#1667ba" stroke-width="4"/><path d="M110 310 C260 170 340 255 440 195 C535 228 700 219 850 221" fill="none" stroke="#08a5bb" stroke-width="4"/><text x="635" y="150" font-size="21" fill="#1667ba" text-anchor="start" font-weight="400">蓝：归一化残差</text><text x="635" y="188" font-size="21" fill="#08a5bb" text-anchor="start" font-weight="400">青：监测量（独立纵轴）</text><text x="480" y="407" font-size="23" fill="#14334e" text-anchor="middle" font-weight="400">同时检查残差、质量守恒、压降 / 力 / 温度等目标量</text><text x="40" y="451" font-size="15" fill="#62798c" text-anchor="start" font-weight="400">FoamLab · 原创教学示意图，非计算结果</text></g></svg>