<svg xmlns="http://www.w3.org/2000/svg" width="960" height="480" viewBox="0 0 960 480" role="img" aria-label="压力—速度耦合：用连续性约束修正通量"><defs><marker id="arrow" viewBox="0 0 10 10" refX="9" refY="5" markerWidth="7" markerHeight="7" orient="auto-start-reverse"><path d="M0 0 L10 5 L0 10 Z" fill="#1667ba"/></marker></defs><rect width="960" height="480" rx="18" fill="#f8fbff"/><g font-family="Arial,Microsoft YaHei,sans-serif"><text x="40" y="49" font-size="26" fill="#14334e" text-anchor="start" font-weight="650">压力—速度耦合：用连续性约束修正通量</text><rect x="65" y="135" width="235" height="105" rx="12" fill="#edf5fd" stroke="#c5d9ec"/><text x="182.5" y="173" font-size="21" fill="#14334e" text-anchor="middle" font-weight="650">动量预测</text><text x="182.5" y="204" font-size="16" fill="#62798c" text-anchor="middle" font-weight="400">已知压力 → 预测 U</text><rect x="365" y="135" width="235" height="105" rx="12" fill="#edf5fd" stroke="#c5d9ec"/><text x="482.5" y="173" font-size="21" fill="#14334e" text-anchor="middle" font-weight="650">压力校正</text><text x="482.5" y="204" font-size="16" fill="#62798c" text-anchor="middle" font-weight="400">连续性 → 压力方程</text><rect x="665" y="135" width="235" height="105" rx="12" fill="#edf5fd" stroke="#c5d9ec"/><text x="782.5" y="173" font-size="21" fill="#14334e" text-anchor="middle" font-weight="650">通量与速度更新</text><text x="782.5" y="204" font-size="16" fill="#62798c" text-anchor="middle" font-weight="400">校正 φ 和 U</text><line x1="303" y1="187" x2="360" y2="187" stroke="#1667ba" stroke-width="3" marker-end="url(#arrow)"/><line x1="603" y1="187" x2="660" y2="187" stroke="#1667ba" stroke-width="3" marker-end="url(#arrow)"/><line x1="785" y1="242" x2="785" y2="324" stroke="#1667ba" stroke-width="3"/><line x1="785" y1="324" x2="184" y2="324" stroke="#1667ba" stroke-width="3"/><line x1="184" y1="324" x2="184" y2="248" stroke="#1667ba" stroke-width="3" marker-end="url(#arrow)"/><text x="480" y="374" font-size="21" fill="#14334e" text-anchor="middle" font-weight="400">SIMPLE：稳态外迭代   PISO：时间步内校正   PIMPLE：增加外层耦合</text><text x="40" y="451" font-size="15" fill="#62798c" text-anchor="start" font-weight="400">FoamLab · 原创教学示意图，非计算结果</text></g></svg>